<?xml version="1.0" encoding="UTF-8" standalone="no"?>
<svg
   xmlns:dc="http://purl.org/dc/elements/1.1/"
   xmlns:cc="http://creativecommons.org/ns#"
   xmlns:rdf="http://www.w3.org/1999/02/22-rdf-syntax-ns#"
   xmlns:svg="http://www.w3.org/2000/svg"
   xmlns="http://www.w3.org/2000/svg"
   viewBox="0 0 1598.6667 798.66669"
   height="798.66669"
   width="1598.6667"
   xml:space="preserve"
   id="svg2"
   version="1.1"><metadata
     id="metadata8"><rdf:RDF><cc:Work
         rdf:about=""><dc:format>image/svg+xml</dc:format><dc:type
           rdf:resource="http://purl.org/dc/dcmitype/StillImage" /><dc:title></dc:title></cc:Work></rdf:RDF></metadata><defs
     id="defs6" /><g
     transform="matrix(1.3333333,0,0,-1.3333333,0,798.66667)"
     id="g10"><g
       transform="scale(0.1)"
       id="g12"><path
         id="path14"
         style="fill:#d8d8d8;fill-opacity:1;fill-rule:nonzero;stroke:none"
         d="m 4660,2718.59 h 1125 v 375 H 4660 Z" /><path
         id="path16"
         style="fill:none;stroke:#d8d8d8;stroke-width:7.5;stroke-linecap:butt;stroke-linejoin:miter;stroke-miterlimit:4;stroke-dasharray:none;stroke-opacity:1"
         d="m 4660,2718.59 h 1125 v 375 H 4660 Z" /><g
         transform="scale(10)"
         id="g18"><text
           id="text22"
           style="font-variant:normal;font-weight:normal;font-size:10.41670036px;font-family:Arial;-inkscape-font-specification:ArialMT;writing-mode:lr-tb;fill:#333333;fill-opacity:1;fill-rule:nonzero;stroke:none"
           transform="matrix(1,0,0,-1,505.179,287.094)"><tspan
             id="tspan20"
             y="0"
             x="0 6.9479389 9.8437815 12.739624 18.531309 23.739658 28.948009">Attacks</tspan></text>
</g><path
         id="path24"
         style="fill:none;stroke:#545454;stroke-width:7.5;stroke-linecap:butt;stroke-linejoin:miter;stroke-miterlimit:4;stroke-dasharray:none;stroke-opacity:1"
         d="M 6055,4300.31 V 1511.88 m 0,1394.21 h -270 m 270,1394.22 h 153.75 M 6055,3015.7 h 153.75 M 6055,1511.88 h 153.75" /><path
         id="path26"
         style="fill:none;stroke:#545454;stroke-width:7.5;stroke-linecap:butt;stroke-linejoin:miter;stroke-miterlimit:4;stroke-dasharray:none;stroke-opacity:1"
         d="M 2841.25,5838.91 V 3695.47 m 0,1071.72 h 270 m -270,1071.72 H 2687.5 m 153.75,-357.19 H 2687.5 m 153.75,-357.19 H 2687.5 m 153.75,-357.19 H 2687.5 m 153.75,-357.18 H 2687.5 m 153.75,-357.35 H 2687.5 m 153.75,-357.34 H 2687.5" /><path
         id="path28"
         style="fill:#ccc1d9;fill-opacity:1;fill-rule:nonzero;stroke:none"
         d="m 1562.5,4987.19 h 1125 v 274.688 h -1125 z" /><path
         id="path30"
         style="fill:none;stroke:#ccc1d9;stroke-width:7.5;stroke-linecap:butt;stroke-linejoin:miter;stroke-miterlimit:4;stroke-dasharray:none;stroke-opacity:1"
         d="m 1562.5,4987.19 h 1125 v 274.688 h -1125 z" /><g
         transform="scale(10)"
         id="g32"><text
           id="text36"
           style="font-variant:normal;font-weight:normal;font-size:10.41670036px;font-family:Arial;-inkscape-font-specification:ArialMT;writing-mode:lr-tb;fill:#333333;fill-opacity:1;fill-rule:nonzero;stroke:none"
           transform="matrix(1,0,0,-1,201.215,508.938)"><tspan
             id="tspan34"
             y="0"
             x="0 7.5208573 15.041715">RNN</tspan></text>
</g><path
         id="path38"
         style="fill:#ccc1d9;fill-opacity:1;fill-rule:nonzero;stroke:none"
         d="m 1562.5,5344.37 h 1125 v 274.688 h -1125 z" /><path
         id="path40"
         style="fill:none;stroke:#ccc1d9;stroke-width:7.5;stroke-linecap:butt;stroke-linejoin:miter;stroke-miterlimit:4;stroke-dasharray:none;stroke-opacity:1"
         d="m 1562.5,5344.37 h 1125 v 274.688 h -1125 z" /><g
         transform="scale(10)"
         id="g42"><text
           id="text46"
           style="font-variant:normal;font-weight:normal;font-size:10.41670036px;font-family:Arial;-inkscape-font-specification:ArialMT;writing-mode:lr-tb;fill:#333333;fill-opacity:1;fill-rule:nonzero;stroke:none"
           transform="matrix(1,0,0,-1,201.215,544.656)"><tspan
             id="tspan44"
             y="0"
             x="0 7.5208573 15.041715">CNN</tspan></text>
</g><path
         id="path48"
         style="fill:#ccc1d9;fill-opacity:1;fill-rule:nonzero;stroke:none"
         d="m 1562.5,5701.56 h 1125 v 274.691 h -1125 z" /><path
         id="path50"
         style="fill:none;stroke:#ccc1d9;stroke-width:7.5;stroke-linecap:butt;stroke-linejoin:miter;stroke-miterlimit:4;stroke-dasharray:none;stroke-opacity:1"
         d="m 1562.5,5701.56 h 1125 v 274.691 h -1125 z" /><g
         transform="scale(10)"
         id="g52"><text
           id="text56"
           style="font-variant:normal;font-weight:normal;font-size:10.41670036px;font-family:Arial;-inkscape-font-specification:ArialMT;writing-mode:lr-tb;fill:#333333;fill-opacity:1;fill-rule:nonzero;stroke:none"
           transform="matrix(1,0,0,-1,201.215,580.375)"><tspan
             id="tspan54"
             y="0"
             x="0 7.5208573 15.041715">DNN</tspan></text>
</g><path
         id="path58"
         style="fill:#b7dde8;fill-opacity:1;fill-rule:nonzero;stroke:none"
         d="m 3111.25,4579.69 h 1125 v 375 h -1125 z" /><path
         id="path60"
         style="fill:none;stroke:#b7dde8;stroke-width:7.5;stroke-linecap:butt;stroke-linejoin:miter;stroke-miterlimit:4;stroke-dasharray:none;stroke-opacity:1"
         d="m 3111.25,4579.69 h 1125 v 375 h -1125 z" /><g
         transform="scale(10)"
         id="g62"><text
           id="text66"
           style="font-variant:normal;font-weight:normal;font-size:10.41670036px;font-family:Arial;-inkscape-font-specification:ArialMT;writing-mode:lr-tb;fill:#333333;fill-opacity:1;fill-rule:nonzero;stroke:none"
           transform="matrix(1,0,0,-1,319.047,473.204)"><tspan
             id="tspan64"
             y="0"
             x="0 8.6771107 14.468797 20.260481 26.052166 28.364674 33.573025 35.896061 42.844002 46.312763 51.521111 57.312798 59.625305 62.521149 68.312836 73.521179 76.417023 82.20871 85.677467 91.469154">Models Architectures</tspan></text>
</g><path
         id="path68"
         style="fill:none;stroke:#545454;stroke-width:7.5;stroke-linecap:butt;stroke-linejoin:miter;stroke-miterlimit:4;stroke-dasharray:none;stroke-opacity:1"
         d="m 2841.25,3263.28 v -893.05 m 0,446.53 h 270 m -270,446.52 H 2687.5 m 153.75,-893.05 H 2687.5" /><path
         id="path70"
         style="fill:none;stroke:#545454;stroke-width:7.5;stroke-linecap:butt;stroke-linejoin:miter;stroke-miterlimit:4;stroke-dasharray:none;stroke-opacity:1"
         d="m 1292.5,2727.5 v -714.53 m 0,357.26 h 270 m -270,357.27 h -153.75 m 153.75,-357.19 h -153.75 m 153.75,-357.34 h -153.75" /><path
         id="path72"
         style="fill:#ccc1d9;fill-opacity:1;fill-rule:nonzero;stroke:none"
         d="m 1562.5,2232.89 h 1125 v 274.691 h -1125 z" /><path
         id="path74"
         style="fill:none;stroke:#ccc1d9;stroke-width:7.5;stroke-linecap:butt;stroke-linejoin:miter;stroke-miterlimit:4;stroke-dasharray:none;stroke-opacity:1"
         d="m 1562.5,2232.89 h 1125 v 274.691 h -1125 z" /><g
         transform="scale(10)"
         id="g76"><text
           id="text80"
           style="font-variant:normal;font-weight:normal;font-size:10.41670036px;font-family:Arial;-inkscape-font-specification:ArialMT;writing-mode:lr-tb;fill:#333333;fill-opacity:1;fill-rule:nonzero;stroke:none"
           transform="matrix(1,0,0,-1,194.269,233.507)"><tspan
             id="tspan78"
             y="0"
             x="0 6.9479389 12.156289 14.468797 19.677147 22.572989 24.885496 30.677181">Existing</tspan></text>
</g><path
         id="path82"
         style="fill:none;stroke:#545454;stroke-width:7.5;stroke-linecap:butt;stroke-linejoin:miter;stroke-miterlimit:4;stroke-dasharray:none;stroke-opacity:1"
         d="m 1292.5,3441.88 v -357.19 m 0,178.59 h 270 m -270,178.6 h -153.75 m 153.75,-357.19 h -153.75" /><path
         id="path84"
         style="fill:#ccc1d9;fill-opacity:1;fill-rule:nonzero;stroke:none"
         d="m 1562.5,3125.93 h 1125 v 274.691 h -1125 z" /><path
         id="path86"
         style="fill:none;stroke:#ccc1d9;stroke-width:7.5;stroke-linecap:butt;stroke-linejoin:miter;stroke-miterlimit:4;stroke-dasharray:none;stroke-opacity:1"
         d="m 1562.5,3125.93 h 1125 v 274.691 h -1125 z" /><g
         transform="scale(10)"
         id="g88"><text
           id="text92"
           style="font-variant:normal;font-weight:normal;font-size:10.41670036px;font-family:Arial;-inkscape-font-specification:ArialMT;writing-mode:lr-tb;fill:#333333;fill-opacity:1;fill-rule:nonzero;stroke:none"
           transform="matrix(1,0,0,-1,193.982,322.812)"><tspan
             id="tspan90"
             y="0"
             x="0 6.7602549 9.0727625 14.281113 16.59362 22.385305 24.697813 27.010321 29.322826 32.21867">Visibility</tspan></text>
</g><path
         id="path94"
         style="fill:#b7dde8;fill-opacity:1;fill-rule:nonzero;stroke:none"
         d="m 3111.25,2629.26 h 1125 v 375 h -1125 z" /><path
         id="path96"
         style="fill:none;stroke:#b7dde8;stroke-width:7.5;stroke-linecap:butt;stroke-linejoin:miter;stroke-miterlimit:4;stroke-dasharray:none;stroke-opacity:1"
         d="m 3111.25,2629.26 h 1125 v 375 h -1125 z" /><g
         transform="scale(10)"
         id="g98"><text
           id="text102"
           style="font-variant:normal;font-weight:normal;font-size:10.41670036px;font-family:Arial;-inkscape-font-specification:ArialMT;writing-mode:lr-tb;fill:#333333;fill-opacity:1;fill-rule:nonzero;stroke:none"
           transform="matrix(1,0,0,-1,348.473,278.16)"><tspan
             id="tspan100"
             y="0"
             x="0 5.9790316 9.447793 11.7603 17.551985 23.34367 29.135355 32.604118">Triggers</tspan></text>
</g><path
         id="path104"
         style="fill:none;stroke:#545454;stroke-width:7.5;stroke-linecap:butt;stroke-linejoin:miter;stroke-miterlimit:4;stroke-dasharray:none;stroke-opacity:1"
         d="M 4390,4767.19 V 1045 m 0,1861.09 h 270 m -270,1861.1 H 4236.25 M 4390,2816.76 H 4236.25 M 4390,1045 h -153.75" /><path
         id="path106"
         style="fill:none;stroke:#545454;stroke-width:7.5;stroke-linecap:butt;stroke-linejoin:miter;stroke-miterlimit:4;stroke-dasharray:none;stroke-opacity:1"
         d="m 7603.75,4630.31 v -660 m 0,330 h -270 m 270,330 h 153.75 m -153.75,-330 h 153.75 m -153.75,-330 h 153.75" /><path
         id="path108"
         style="fill:#ccc1d9;fill-opacity:1;fill-rule:nonzero;stroke:none"
         d="m 7757.5,3846.56 h 1125 v 247.5 h -1125 z" /><path
         id="path110"
         style="fill:none;stroke:#ccc1d9;stroke-width:7.5;stroke-linecap:butt;stroke-linejoin:miter;stroke-miterlimit:4;stroke-dasharray:none;stroke-opacity:1"
         d="m 7757.5,3846.56 h 1125 v 247.5 h -1125 z" /><g
         transform="scale(10)"
         id="g112"><text
           id="text116"
           style="font-variant:normal;font-weight:normal;font-size:10.41670036px;font-family:Arial;-inkscape-font-specification:ArialMT;writing-mode:lr-tb;fill:#333333;fill-opacity:1;fill-rule:nonzero;stroke:none"
           transform="matrix(1,0,0,-1,809.136,392.157)"><tspan
             id="tspan114"
             y="0"
             x="0 6.9479389 9.2604465 15.052132 20.260481 25.468832 28.937593 34.729279 40.520962">Black-box</tspan></text>
</g><path
         id="path118"
         style="fill:#ccc1d9;fill-opacity:1;fill-rule:nonzero;stroke:none"
         d="m 7757.5,4176.56 h 1125 v 247.5 h -1125 z" /><path
         id="path120"
         style="fill:none;stroke:#ccc1d9;stroke-width:7.5;stroke-linecap:butt;stroke-linejoin:miter;stroke-miterlimit:4;stroke-dasharray:none;stroke-opacity:1"
         d="m 7757.5,4176.56 h 1125 v 247.5 h -1125 z" /><g
         transform="scale(10)"
         id="g122"><text
           id="text126"
           style="font-variant:normal;font-weight:normal;font-size:10.41670036px;font-family:Arial;-inkscape-font-specification:ArialMT;writing-mode:lr-tb;fill:#333333;fill-opacity:1;fill-rule:nonzero;stroke:none"
           transform="matrix(1,0,0,-1,810.589,425.157)"><tspan
             id="tspan124"
             y="0"
             x="0 8.1041927 11.572953 17.364639 22.572989 26.04175 31.833435 37.625122">Gray-box</tspan></text>
</g><path
         id="path128"
         style="fill:#ccc1d9;fill-opacity:1;fill-rule:nonzero;stroke:none"
         d="m 7757.5,4506.56 h 1125 v 247.5 h -1125 z" /><path
         id="path130"
         style="fill:none;stroke:#ccc1d9;stroke-width:7.5;stroke-linecap:butt;stroke-linejoin:miter;stroke-miterlimit:4;stroke-dasharray:none;stroke-opacity:1"
         d="m 7757.5,4506.56 h 1125 v 247.5 h -1125 z" /><g
         transform="scale(10)"
         id="g132"><text
           id="text136"
           style="font-variant:normal;font-weight:normal;font-size:10.41670036px;font-family:Arial;-inkscape-font-specification:ArialMT;writing-mode:lr-tb;fill:#333333;fill-opacity:1;fill-rule:nonzero;stroke:none"
           transform="matrix(1,0,0,-1,808.563,458.157)"><tspan
             id="tspan134"
             y="0"
             x="0 9.8333645 15.62505 17.937557 20.833401 26.625086 30.093845 35.885532 41.677216">White-box</tspan></text>
</g><path
         id="path138"
         style="fill:#b7dde8;fill-opacity:1;fill-rule:nonzero;stroke:none"
         d="m 6208.75,4112.81 h 1125 v 375 h -1125 z" /><path
         id="path140"
         style="fill:none;stroke:#b7dde8;stroke-width:7.5;stroke-linecap:butt;stroke-linejoin:miter;stroke-miterlimit:4;stroke-dasharray:none;stroke-opacity:1"
         d="m 6208.75,4112.81 h 1125 v 375 h -1125 z" /><g
         transform="scale(10)"
         id="g142"><text
           id="text146"
           style="font-variant:normal;font-weight:normal;font-size:10.41670036px;font-family:Arial;-inkscape-font-specification:ArialMT;writing-mode:lr-tb;fill:#333333;fill-opacity:1;fill-rule:nonzero;stroke:none"
           transform="matrix(1,0,0,-1,629.084,426.516)"><tspan
             id="tspan144"
             y="0"
             x="0 6.9479389 9.8437815 12.739624 18.531309 23.739658 28.948009 34.739693 38.208454 43.416805 46.312649 51.521 57.312683 63.10437 70.625229 72.937737 78.729416 84.521103 90.31279">Attackers knowledge</tspan></text>
</g><path
         id="path148"
         style="fill:none;stroke:#545454;stroke-width:7.5;stroke-linecap:butt;stroke-linejoin:miter;stroke-miterlimit:4;stroke-dasharray:none;stroke-opacity:1"
         d="M 7603.75,2047.66 V 976.09 m 0,535.79 h -270 m 270,535.78 H 7757.5 M 7603.75,1690.47 H 7757.5 M 7603.75,1333.28 H 7757.5 M 7603.75,976.09 h 153.75" /><path
         id="path150"
         style="fill:#ccc1d9;fill-opacity:1;fill-rule:nonzero;stroke:none"
         d="m 7757.5,838.75 h 1125 v 274.691 h -1125 z" /><path
         id="path152"
         style="fill:none;stroke:#ccc1d9;stroke-width:7.5;stroke-linecap:butt;stroke-linejoin:miter;stroke-miterlimit:4;stroke-dasharray:none;stroke-opacity:1"
         d="m 7757.5,838.75 h 1125 v 274.691 h -1125 z" /><g
         transform="scale(10)"
         id="g154"><text
           id="text158"
           style="font-variant:normal;font-weight:normal;font-size:10.41670036px;font-family:Arial;-inkscape-font-specification:ArialMT;writing-mode:lr-tb;fill:#333333;fill-opacity:1;fill-rule:nonzero;stroke:none"
           transform="matrix(1,0,0,-1,791.094,94.0938)"><tspan
             id="tspan156"
             y="0"
             x="0 5.9790068 9.4477673 15.239453 21.031137 26.239489 29.13533 34.927017 38.395779 41.291618 47.083305 52.874989 58.666676 62.135437 67.927124 70.239632 76.031311">Transfer Learning</tspan></text>
</g><path
         id="path160"
         style="fill:#ccc1d9;fill-opacity:1;fill-rule:nonzero;stroke:none"
         d="m 7757.5,1195.93 h 1125 v 274.691 h -1125 z" /><path
         id="path162"
         style="fill:none;stroke:#ccc1d9;stroke-width:7.5;stroke-linecap:butt;stroke-linejoin:miter;stroke-miterlimit:4;stroke-dasharray:none;stroke-opacity:1"
         d="m 7757.5,1195.93 h 1125 v 274.691 h -1125 z" /><g
         transform="scale(10)"
         id="g164"><text
           id="text168"
           style="font-variant:normal;font-weight:normal;font-size:10.41670036px;font-family:Arial;-inkscape-font-specification:ArialMT;writing-mode:lr-tb;fill:#333333;fill-opacity:1;fill-rule:nonzero;stroke:none"
           transform="matrix(1,0,0,-1,800.164,129.813)"><tspan
             id="tspan166"
             y="0"
             x="0 7.5208573 13.312543 16.208385 22.000071 24.895912 27.791756 33.583443 35.895947 41.687634 46.895985 49.791824 52.104332 57.896019">Data Injection</tspan></text>
</g><path
         id="path170"
         style="fill:#ccc1d9;fill-opacity:1;fill-rule:nonzero;stroke:none"
         d="m 7757.5,1553.12 h 1125 v 274.688 h -1125 z" /><path
         id="path172"
         style="fill:none;stroke:#ccc1d9;stroke-width:7.5;stroke-linecap:butt;stroke-linejoin:miter;stroke-miterlimit:4;stroke-dasharray:none;stroke-opacity:1"
         d="m 7757.5,1553.12 h 1125 v 274.688 h -1125 z" /><g
         transform="scale(10)"
         id="g174"><text
           id="text178"
           style="font-variant:normal;font-weight:normal;font-size:10.41670036px;font-family:Arial;-inkscape-font-specification:ArialMT;writing-mode:lr-tb;fill:#333333;fill-opacity:1;fill-rule:nonzero;stroke:none"
           transform="matrix(1,0,0,-1,790.032,165.531)"><tspan
             id="tspan176"
             y="0"
             x="0 7.5208573 13.312543 16.208385 22.000071 24.895912 33.573025 39.364708 45.156395 47.468903 53.260586 59.052273 61.36478 67.156464 70.052307 72.364815 78.156502">Data Manipulation</tspan></text>
</g><path
         id="path180"
         style="fill:#ccc1d9;fill-opacity:1;fill-rule:nonzero;stroke:none"
         d="m 7757.5,1910.31 h 1125 v 274.691 h -1125 z" /><path
         id="path182"
         style="fill:none;stroke:#ccc1d9;stroke-width:7.5;stroke-linecap:butt;stroke-linejoin:miter;stroke-miterlimit:4;stroke-dasharray:none;stroke-opacity:1"
         d="m 7757.5,1910.31 h 1125 v 274.691 h -1125 z" /><g
         transform="scale(10)"
         id="g184"><text
           id="text188"
           style="font-variant:normal;font-weight:normal;font-size:10.41670036px;font-family:Arial;-inkscape-font-specification:ArialMT;writing-mode:lr-tb;fill:#333333;fill-opacity:1;fill-rule:nonzero;stroke:none"
           transform="matrix(1,0,0,-1,793.798,201.25)"><tspan
             id="tspan186"
             y="0"
             x="0 5.7916851 11.58337 17.375055 19.687563 24.895912 27.791756 35.312614 41.104298 44.573059 48.041821 53.833504 59.625191 62.521034 64.833542 70.625229">Logic Corruption</tspan></text>
</g><path
         id="path190"
         style="fill:#b7dde8;fill-opacity:1;fill-rule:nonzero;stroke:none"
         d="m 6208.75,1324.38 h 1125 v 375 h -1125 z" /><path
         id="path192"
         style="fill:none;stroke:#b7dde8;stroke-width:7.5;stroke-linecap:butt;stroke-linejoin:miter;stroke-miterlimit:4;stroke-dasharray:none;stroke-opacity:1"
         d="m 6208.75,1324.38 h 1125 v 375 h -1125 z" /><g
         transform="scale(10)"
         id="g194"><text
           id="text198"
           style="font-variant:normal;font-weight:normal;font-size:10.41670036px;font-family:Arial;-inkscape-font-specification:ArialMT;writing-mode:lr-tb;fill:#333333;fill-opacity:1;fill-rule:nonzero;stroke:none"
           transform="matrix(1,0,0,-1,640.669,147.672)"><tspan
             id="tspan196"
             y="0"
             x="0 6.9479389 12.156289 17.364639 23.156324 28.364674 33.573025 36.468868 39.364708 48.041821 53.833504 59.625191 64.833542 67.729385">Access Impacts</tspan></text>
</g><path
         id="path200"
         style="fill:none;stroke:#545454;stroke-width:7.5;stroke-linecap:butt;stroke-linejoin:miter;stroke-miterlimit:4;stroke-dasharray:none;stroke-opacity:1"
         d="M 2841.25,1937.89 V 152.109 m 0,892.891 h 270 m -270,892.89 H 2687.5 m 153.75,-357.5 H 2687.5 m 153.75,-357.5 H 2687.5 M 2841.25,866.02 H 2687.5 M 2841.25,509.301 H 2687.5 M 2841.25,152.109 H 2687.5" /><path
         id="path202"
         style="fill:#ccc1d9;fill-opacity:1;fill-rule:nonzero;stroke:none"
         d="m 1562.5,729.141 h 1125 v 273.75 h -1125 z" /><path
         id="path204"
         style="fill:none;stroke:#ccc1d9;stroke-width:7.5;stroke-linecap:butt;stroke-linejoin:miter;stroke-miterlimit:4;stroke-dasharray:none;stroke-opacity:1"
         d="m 1562.5,729.141 h 1125 v 273.75 h -1125 z" /><g
         transform="scale(10)"
         id="g206"><text
           id="text210"
           style="font-variant:normal;font-weight:normal;font-size:10.41670036px;font-family:Arial;-inkscape-font-specification:ArialMT;writing-mode:lr-tb;fill:#333333;fill-opacity:1;fill-rule:nonzero;stroke:none"
           transform="matrix(1,0,0,-1,179.498,83.0387)"><tspan
             id="tspan208"
             y="0"
             x="0 6.9479389 12.739624 15.635467 21.427153 27.218838 33.010521 35.906364 38.218872 43.427223 49.218906 52.11475 54.427258 60.218945">Authentication</tspan></text>
</g><path
         id="path212"
         style="fill:#ccc1d9;fill-opacity:1;fill-rule:nonzero;stroke:none"
         d="m 1562.5,1085.39 h 1125 v 275 h -1125 z" /><path
         id="path214"
         style="fill:none;stroke:#ccc1d9;stroke-width:7.5;stroke-linecap:butt;stroke-linejoin:miter;stroke-miterlimit:4;stroke-dasharray:none;stroke-opacity:1"
         d="m 1562.5,1085.39 h 1125 v 275 h -1125 z" /><g
         transform="scale(10)"
         id="g216"><text
           id="text220"
           style="font-variant:normal;font-weight:normal;font-size:10.41670036px;font-family:Arial;-inkscape-font-specification:ArialMT;writing-mode:lr-tb;fill:#333333;fill-opacity:1;fill-rule:nonzero;stroke:none"
           transform="matrix(1,0,0,-1,179.987,118.773)"><tspan
             id="tspan218"
             y="0"
             x="0 7.5208573 13.312543 19.104227 22.000071 24.312578 30.104263 35.895947 41.687634 44.583477 46.895985 52.687668 55.000175 57.312683 60.208527">Confidentiality</tspan></text>
</g><path
         id="path222"
         style="fill:#ccc1d9;fill-opacity:1;fill-rule:nonzero;stroke:none"
         d="m 1562.5,1442.89 h 1125 v 275 h -1125 z" /><path
         id="path224"
         style="fill:none;stroke:#ccc1d9;stroke-width:7.5;stroke-linecap:butt;stroke-linejoin:miter;stroke-miterlimit:4;stroke-dasharray:none;stroke-opacity:1"
         d="m 1562.5,1442.89 h 1125 v 275 h -1125 z" /><g
         transform="scale(10)"
         id="g226"><text
           id="text230"
           style="font-variant:normal;font-weight:normal;font-size:10.41670036px;font-family:Arial;-inkscape-font-specification:ArialMT;writing-mode:lr-tb;fill:#333333;fill-opacity:1;fill-rule:nonzero;stroke:none"
           transform="matrix(1,0,0,-1,188.189,154.524)"><tspan
             id="tspan228"
             y="0"
             x="0 6.7602549 11.968605 17.76029 20.072798 22.385305 28.176991 33.968674 36.281181 38.593689 40.906197 43.80204">Availability</tspan></text>
</g><path
         id="path232"
         style="fill:#ccc1d9;fill-opacity:1;fill-rule:nonzero;stroke:none"
         d="m 1562.5,1800.39 h 1125 v 275 h -1125 z" /><path
         id="path234"
         style="fill:none;stroke:#ccc1d9;stroke-width:7.5;stroke-linecap:butt;stroke-linejoin:miter;stroke-miterlimit:4;stroke-dasharray:none;stroke-opacity:1"
         d="m 1562.5,1800.39 h 1125 v 275 h -1125 z" /><g
         transform="scale(10)"
         id="g236"><text
           id="text240"
           style="font-variant:normal;font-weight:normal;font-size:10.41670036px;font-family:Arial;-inkscape-font-specification:ArialMT;writing-mode:lr-tb;fill:#333333;fill-opacity:1;fill-rule:nonzero;stroke:none"
           transform="matrix(1,0,0,-1,194.171,190.273)"><tspan
             id="tspan238"
             y="0"
             x="0 2.8958426 8.6875277 11.58337 17.375055 23.16674 26.635502 28.948009 31.843851">Integrity</tspan></text>
</g><path
         id="path242"
         style="fill:#b7dde8;fill-opacity:1;fill-rule:nonzero;stroke:none"
         d="m 3111.25,857.5 h 1125 v 375 h -1125 z" /><path
         id="path244"
         style="fill:none;stroke:#b7dde8;stroke-width:7.5;stroke-linecap:butt;stroke-linejoin:miter;stroke-miterlimit:4;stroke-dasharray:none;stroke-opacity:1"
         d="m 3111.25,857.5 h 1125 v 375 h -1125 z" /><g
         transform="scale(10)"
         id="g246"><text
           id="text250"
           style="font-variant:normal;font-weight:normal;font-size:10.41670036px;font-family:Arial;-inkscape-font-specification:ArialMT;writing-mode:lr-tb;fill:#333333;fill-opacity:1;fill-rule:nonzero;stroke:none"
           transform="matrix(1,0,0,-1,325.413,100.984)"><tspan
             id="tspan248"
             y="0"
             x="0 6.9479389 12.739624 17.947973 23.739658 27.20842 29.520927 32.416771 37.625122 40.520962 45.729313 48.041821 53.833504 56.146011 61.937698 64.833542 67.146049 72.937737 78.729416">Security violations</tspan></text>
</g><path
         id="path252"
         style="fill:none;stroke:#545454;stroke-width:7.5;stroke-linecap:butt;stroke-linejoin:miter;stroke-miterlimit:4;stroke-dasharray:none;stroke-opacity:1"
         d="M 7603.75,3551.56 V 2479.84 m 0,535.86 h -270 m 270,535.86 h 153.75 m -153.75,-714.37 h 153.75 m -153.75,-357.35 h 153.75" /><path
         id="path254"
         style="fill:none;stroke:#545454;stroke-width:7.5;stroke-linecap:butt;stroke-linejoin:miter;stroke-miterlimit:4;stroke-dasharray:none;stroke-opacity:1"
         d="m 9152.5,3015.78 v -357.19 m 0,178.6 h -270 m 270,178.59 h 153.75 M 9152.5,2658.59 h 153.75" /><path
         id="path256"
         style="fill:#ccc1d9;fill-opacity:1;fill-rule:nonzero;stroke:none"
         d="m 7757.5,2699.69 h 1125 v 275 h -1125 z" /><path
         id="path258"
         style="fill:none;stroke:#ccc1d9;stroke-width:7.5;stroke-linecap:butt;stroke-linejoin:miter;stroke-miterlimit:4;stroke-dasharray:none;stroke-opacity:1"
         d="m 7757.5,2699.69 h 1125 v 275 h -1125 z" /><g
         transform="scale(10)"
         id="g260"><text
           id="text264"
           style="font-variant:normal;font-weight:normal;font-size:10.41670036px;font-family:Arial;-inkscape-font-specification:ArialMT;writing-mode:lr-tb;fill:#333333;fill-opacity:1;fill-rule:nonzero;stroke:none"
           transform="matrix(1,0,0,-1,814.831,280.204)"><tspan
             id="tspan262"
             y="0"
             x="0 5.9790554 9.4478168 15.239502 17.55201 23.343695 29.13538">Trojans</tspan></text>
</g><path
         id="path266"
         style="fill:none;stroke:#545454;stroke-width:7.5;stroke-linecap:butt;stroke-linejoin:miter;stroke-miterlimit:4;stroke-dasharray:none;stroke-opacity:1"
         d="m 9152.5,3730.16 v -357.19 m 0,178.59 h -270 m 270,178.6 h 153.75 M 9152.5,3372.97 h 153.75" /><path
         id="path268"
         style="fill:#ccc1d9;fill-opacity:1;fill-rule:nonzero;stroke:none"
         d="m 7757.5,3414.06 h 1125 v 275 h -1125 z" /><path
         id="path270"
         style="fill:none;stroke:#ccc1d9;stroke-width:7.5;stroke-linecap:butt;stroke-linejoin:miter;stroke-miterlimit:4;stroke-dasharray:none;stroke-opacity:1"
         d="m 7757.5,3414.06 h 1125 v 275 h -1125 z" /><g
         transform="scale(10)"
         id="g272"><text
           id="text276"
           style="font-variant:normal;font-weight:normal;font-size:10.41670036px;font-family:Arial;-inkscape-font-specification:ArialMT;writing-mode:lr-tb;fill:#333333;fill-opacity:1;fill-rule:nonzero;stroke:none"
           transform="matrix(1,0,0,-1,790.899,351.641)"><tspan
             id="tspan274"
             y="0"
             x="0 6.9479389 12.739624 15.052132 20.260481 26.052166 31.843851 34.156361 39.948044 45.739731 48.062817 55.010754 57.906597 60.802441 66.594124 71.802475 77.010826">Poisoning Attacks</tspan></text>
</g><path
         id="path278"
         style="fill:#b7dde8;fill-opacity:1;fill-rule:nonzero;stroke:none"
         d="m 6208.75,2828.2 h 1125 v 375 h -1125 z" /><path
         id="path280"
         style="fill:none;stroke:#b7dde8;stroke-width:7.5;stroke-linecap:butt;stroke-linejoin:miter;stroke-miterlimit:4;stroke-dasharray:none;stroke-opacity:1"
         d="m 6208.75,2828.2 h 1125 v 375 h -1125 z" /><g
         transform="scale(10)"
         id="g282"><text
           id="text286"
           style="font-variant:normal;font-weight:normal;font-size:10.41670036px;font-family:Arial;-inkscape-font-specification:ArialMT;writing-mode:lr-tb;fill:#333333;fill-opacity:1;fill-rule:nonzero;stroke:none"
           transform="matrix(1,0,0,-1,643.842,298.054)"><tspan
             id="tspan284"
             y="0"
             x="0 6.9479389 9.8437815 12.739624 18.531309 23.739658 28.948009 31.843851 38.218792 44.010475 49.218826 52.11467 57.906353 61.375114">Attack Vectors</tspan></text>
</g><path
         id="path288"
         style="fill:#ccc1d9;fill-opacity:1;fill-rule:nonzero;stroke:none"
         d="m 1562.5,371.949 h 1125 V 646.64 h -1125 z" /><path
         id="path290"
         style="fill:none;stroke:#ccc1d9;stroke-width:7.5;stroke-linecap:butt;stroke-linejoin:miter;stroke-miterlimit:4;stroke-dasharray:none;stroke-opacity:1"
         d="m 1562.5,371.949 h 1125 V 646.64 h -1125 z" /><g
         transform="scale(10)"
         id="g292"><text
           id="text296"
           style="font-variant:normal;font-weight:normal;font-size:10.41670036px;font-family:Arial;-inkscape-font-specification:ArialMT;writing-mode:lr-tb;fill:#333333;fill-opacity:1;fill-rule:nonzero;stroke:none"
           transform="matrix(1,0,0,-1,182.111,47.4137)"><tspan
             id="tspan294"
             y="0"
             x="0 6.9479389 12.739624 15.635467 21.427153 27.218838 30.687597 33.000107 38.208454 44.000141 46.895985 49.208492 55.000175">Authorization</tspan></text>
</g><path
         id="path298"
         style="fill:#ccc1d9;fill-opacity:1;fill-rule:nonzero;stroke:none"
         d="m 1562.5,14.7617 h 1125 v 274.688 h -1125 z" /><path
         id="path300"
         style="fill:none;stroke:#ccc1d9;stroke-width:7.5;stroke-linecap:butt;stroke-linejoin:miter;stroke-miterlimit:4;stroke-dasharray:none;stroke-opacity:1"
         d="m 1562.5,14.7617 h 1125 v 274.688 h -1125 z" /><g
         transform="scale(10)"
         id="g302"><text
           id="text306"
           style="font-variant:normal;font-weight:normal;font-size:10.41670036px;font-family:Arial;-inkscape-font-specification:ArialMT;writing-mode:lr-tb;fill:#333333;fill-opacity:1;fill-rule:nonzero;stroke:none"
           transform="matrix(1,0,0,-1,195.623,11.6949)"><tspan
             id="tspan304"
             y="0"
             x="0 6.9479389 10.4167 12.729207 17.937557 23.729242 28.937593">Privacy</tspan></text>
</g><path
         id="path308"
         style="fill:#f8d15c;fill-opacity:1;fill-rule:nonzero;stroke:none"
         d="m 13.75,3304.53 h 1125 v 274.688 h -1125 z" /><path
         id="path310"
         style="fill:none;stroke:#fbd585;stroke-width:7.5;stroke-linecap:butt;stroke-linejoin:miter;stroke-miterlimit:4;stroke-dasharray:none;stroke-opacity:1"
         d="m 13.75,3304.53 h 1125 v 274.688 h -1125 z" /><g
         transform="scale(10)"
         id="g312"><text
           id="text316"
           style="font-variant:normal;font-weight:normal;font-size:10.41670036px;font-family:Arial;-inkscape-font-specification:ArialMT;writing-mode:lr-tb;fill:#333333;fill-opacity:1;fill-rule:nonzero;stroke:none"
           transform="matrix(1,0,0,-1,42.3781,340.672)"><tspan
             id="tspan314"
             y="0"
             x="0 6.7602582 9.0727654 14.281116 16.593622 22.385307 24.697815">Visible</tspan></text>
</g><path
         id="path318"
         style="fill:#f8d15c;fill-opacity:1;fill-rule:nonzero;stroke:none"
         d="m 13.75,2947.34 h 1125 v 274.691 h -1125 z" /><path
         id="path320"
         style="fill:none;stroke:#fbd585;stroke-width:7.5;stroke-linecap:butt;stroke-linejoin:miter;stroke-miterlimit:4;stroke-dasharray:none;stroke-opacity:1"
         d="m 13.75,2947.34 h 1125 v 274.691 h -1125 z" /><g
         transform="scale(10)"
         id="g322"><text
           id="text326"
           style="font-variant:normal;font-weight:normal;font-size:10.41670036px;font-family:Arial;-inkscape-font-specification:ArialMT;writing-mode:lr-tb;fill:#333333;fill-opacity:1;fill-rule:nonzero;stroke:none"
           transform="matrix(1,0,0,-1,38.8141,304.953)"><tspan
             id="tspan324"
             y="0"
             x="0 2.8958426 8.6875277 13.895878 16.208385 21.416735 23.729242 29.520927 31.833435">Invisible</tspan></text>
</g><path
         id="path328"
         style="fill:#f8d15c;fill-opacity:1;fill-rule:nonzero;stroke:none"
         d="m 13.75,2590.15 h 1125 v 274.691 h -1125 z" /><path
         id="path330"
         style="fill:none;stroke:#fbd585;stroke-width:7.5;stroke-linecap:butt;stroke-linejoin:miter;stroke-miterlimit:4;stroke-dasharray:none;stroke-opacity:1"
         d="m 13.75,2590.15 h 1125 v 274.691 h -1125 z" /><g
         transform="scale(10)"
         id="g332"><text
           id="text336"
           style="font-variant:normal;font-weight:normal;font-size:10.41670036px;font-family:Arial;-inkscape-font-specification:ArialMT;writing-mode:lr-tb;fill:#333333;fill-opacity:1;fill-rule:nonzero;stroke:none"
           transform="matrix(1,0,0,-1,43.1477,269.234)"><tspan
             id="tspan334"
             y="0"
             x="0 6.9479389 9.2604465 15.052132 20.843817 23.156324">Single</tspan></text>
</g><path
         id="path338"
         style="fill:#f8d15c;fill-opacity:1;fill-rule:nonzero;stroke:none"
         d="m 13.75,2232.97 h 1125 v 274.691 h -1125 z" /><path
         id="path340"
         style="fill:none;stroke:#fbd585;stroke-width:7.5;stroke-linecap:butt;stroke-linejoin:miter;stroke-miterlimit:4;stroke-dasharray:none;stroke-opacity:1"
         d="m 13.75,2232.97 h 1125 v 274.691 h -1125 z" /><g
         transform="scale(10)"
         id="g342"><text
           id="text346"
           style="font-variant:normal;font-weight:normal;font-size:10.41670036px;font-family:Arial;-inkscape-font-specification:ArialMT;writing-mode:lr-tb;fill:#333333;fill-opacity:1;fill-rule:nonzero;stroke:none"
           transform="matrix(1,0,0,-1,39.6805,233.516)"><tspan
             id="tspan344"
             y="0"
             x="0 8.6771107 14.468797 16.781303 19.677147 21.989655 27.78134 30.093845">Multiple</tspan></text>
</g><path
         id="path348"
         style="fill:#f8d15c;fill-opacity:1;fill-rule:nonzero;stroke:none"
         d="m 13.75,1875.47 h 1125 v 275 h -1125 z" /><path
         id="path350"
         style="fill:none;stroke:#fbd585;stroke-width:7.5;stroke-linecap:butt;stroke-linejoin:miter;stroke-miterlimit:4;stroke-dasharray:none;stroke-opacity:1"
         d="m 13.75,1875.47 h 1125 v 275 h -1125 z" /><g
         transform="scale(10)"
         id="g352"><text
           id="text356"
           style="font-variant:normal;font-weight:normal;font-size:10.41670036px;font-family:Arial;-inkscape-font-specification:ArialMT;writing-mode:lr-tb;fill:#333333;fill-opacity:1;fill-rule:nonzero;stroke:none"
           transform="matrix(1,0,0,-1,48.073,197.781)"><tspan
             id="tspan354"
             y="0"
             x="0 7.5208573 13.312543">Non</tspan></text>
</g><path
         id="path358"
         style="fill:#ccc1d9;fill-opacity:1;fill-rule:nonzero;stroke:none"
         d="m 1562.5,4630 h 1125 v 274.691 h -1125 z" /><path
         id="path360"
         style="fill:none;stroke:#ccc1d9;stroke-width:7.5;stroke-linecap:butt;stroke-linejoin:miter;stroke-miterlimit:4;stroke-dasharray:none;stroke-opacity:1"
         d="m 1562.5,4630 h 1125 v 274.691 h -1125 z" /><g
         transform="scale(10)"
         id="g362"><text
           id="text366"
           style="font-variant:normal;font-weight:normal;font-size:10.41670036px;font-family:Arial;-inkscape-font-specification:ArialMT;writing-mode:lr-tb;fill:#333333;fill-opacity:1;fill-rule:nonzero;stroke:none"
           transform="matrix(1,0,0,-1,201.215,473.219)"><tspan
             id="tspan364"
             y="0"
             x="0 8.1041927 15.052132">GAN</tspan></text>
</g><path
         id="path368"
         style="fill:#ccc1d9;fill-opacity:1;fill-rule:nonzero;stroke:none"
         d="m 1562.5,4272.81 h 1125 v 274.691 h -1125 z" /><path
         id="path370"
         style="fill:none;stroke:#ccc1d9;stroke-width:7.5;stroke-linecap:butt;stroke-linejoin:miter;stroke-miterlimit:4;stroke-dasharray:none;stroke-opacity:1"
         d="m 1562.5,4272.81 h 1125 v 274.691 h -1125 z" /><g
         transform="scale(10)"
         id="g372"><text
           id="text376"
           style="font-variant:normal;font-weight:normal;font-size:10.41670036px;font-family:Arial;-inkscape-font-specification:ArialMT;writing-mode:lr-tb;fill:#333333;fill-opacity:1;fill-rule:nonzero;stroke:none"
           transform="matrix(1,0,0,-1,202.081,437.5)"><tspan
             id="tspan374"
             y="0"
             x="0 7.5208573 15.041715">DRL</tspan></text>
</g><path
         id="path378"
         style="fill:#ccc1d9;fill-opacity:1;fill-rule:nonzero;stroke:none"
         d="m 1562.5,3915.31 h 1125 v 275 h -1125 z" /><path
         id="path380"
         style="fill:none;stroke:#ccc1d9;stroke-width:7.5;stroke-linecap:butt;stroke-linejoin:miter;stroke-miterlimit:4;stroke-dasharray:none;stroke-opacity:1"
         d="m 1562.5,3915.31 h 1125 v 275 h -1125 z" /><g
         transform="scale(10)"
         id="g382"><text
           id="text386"
           style="font-variant:normal;font-weight:normal;font-size:10.41670036px;font-family:Arial;-inkscape-font-specification:ArialMT;writing-mode:lr-tb;fill:#333333;fill-opacity:1;fill-rule:nonzero;stroke:none"
           transform="matrix(1,0,0,-1,202.661,401.766)"><tspan
             id="tspan384"
             y="0"
             x="0 6.3646035 13.885461">FDL</tspan></text>
</g><path
         id="path388"
         style="fill:#ccc1d9;fill-opacity:1;fill-rule:nonzero;stroke:none"
         d="m 1562.5,3558.12 h 1125 v 274.688 h -1125 z" /><path
         id="path390"
         style="fill:none;stroke:#ccc1d9;stroke-width:7.5;stroke-linecap:butt;stroke-linejoin:miter;stroke-miterlimit:4;stroke-dasharray:none;stroke-opacity:1"
         d="m 1562.5,3558.12 h 1125 v 274.688 h -1125 z" /><g
         transform="scale(10)"
         id="g392"><text
           id="text396"
           style="font-variant:normal;font-weight:normal;font-size:10.41670036px;font-family:Arial;-inkscape-font-specification:ArialMT;writing-mode:lr-tb;fill:#333333;fill-opacity:1;fill-rule:nonzero;stroke:none"
           transform="matrix(1,0,0,-1,201.507,366.031)"><tspan
             id="tspan394"
             y="0"
             x="0 6.9479389 14.468797">SNN</tspan></text>
</g><path
         id="path398"
         style="fill:#ccc1d9;fill-opacity:1;fill-rule:nonzero;stroke:none"
         d="m 7757.5,2342.5 h 1125 v 274.691 h -1125 z" /><path
         id="path400"
         style="fill:none;stroke:#ccc1d9;stroke-width:7.5;stroke-linecap:butt;stroke-linejoin:miter;stroke-miterlimit:4;stroke-dasharray:none;stroke-opacity:1"
         d="m 7757.5,2342.5 h 1125 v 274.691 h -1125 z" /><g
         transform="scale(10)"
         id="g402"><text
           id="text406"
           style="font-variant:normal;font-weight:normal;font-size:10.41670036px;font-family:Arial;-inkscape-font-specification:ArialMT;writing-mode:lr-tb;fill:#333333;fill-opacity:1;fill-rule:nonzero;stroke:none"
           transform="matrix(1,0,0,-1,807.397,244.469)"><tspan
             id="tspan404"
             y="0"
             x="0 6.9479389 12.739624 17.947973 23.156324 28.948009 34.739693 40.53138 44.000141">Backdoors</tspan></text>
</g><path
         id="path408"
         style="fill:#fbd585;fill-opacity:1;fill-rule:nonzero;stroke:none"
         d="m 9306.25,2878.43 h 1125 v 274.691 h -1125 z" /><path
         id="path410"
         style="fill:none;stroke:#fbd585;stroke-width:7.5;stroke-linecap:butt;stroke-linejoin:miter;stroke-miterlimit:4;stroke-dasharray:none;stroke-opacity:1"
         d="m 9306.25,2878.43 h 1125 v 274.691 h -1125 z" /><g
         transform="scale(10)"
         id="g412"><text
           id="text416"
           style="font-variant:normal;font-weight:normal;font-size:10.41670036px;font-family:Arial;-inkscape-font-specification:ArialMT;writing-mode:lr-tb;fill:#333333;fill-opacity:1;fill-rule:nonzero;stroke:none"
           transform="matrix(1,0,0,-1,966.324,298.062)"><tspan
             id="tspan414"
             y="0"
             x="0 6.9479389 12.739624 15.635467 18.531309 26.052166 31.843851 35.312614">Software</tspan></text>
</g><path
         id="path418"
         style="fill:#fbd585;fill-opacity:1;fill-rule:nonzero;stroke:none"
         d="m 9306.25,2521.25 h 1125 v 274.691 h -1125 z" /><path
         id="path420"
         style="fill:none;stroke:#fbd585;stroke-width:7.5;stroke-linecap:butt;stroke-linejoin:miter;stroke-miterlimit:4;stroke-dasharray:none;stroke-opacity:1"
         d="m 9306.25,2521.25 h 1125 v 274.691 h -1125 z" /><g
         transform="scale(10)"
         id="g422"><text
           id="text426"
           style="font-variant:normal;font-weight:normal;font-size:10.41670036px;font-family:Arial;-inkscape-font-specification:ArialMT;writing-mode:lr-tb;fill:#333333;fill-opacity:1;fill-rule:nonzero;stroke:none"
           transform="matrix(1,0,0,-1,964.305,262.343)"><tspan
             id="tspan424"
             y="0"
             x="0 7.5208573 13.312543 16.781303 22.572989 30.093845 35.885532 39.354294">Hardware</tspan></text>
</g><path
         id="path428"
         style="fill:none;stroke:#545454;stroke-width:7.5;stroke-linecap:butt;stroke-linejoin:miter;stroke-miterlimit:4;stroke-dasharray:none;stroke-opacity:1"
         d="M 10701.3,3908.52 V 3551.8 m 0,178.36 h -270 m 270,178.36 h 153.7 m -153.7,-356.72 h 153.7" /><path
         id="path430"
         style="fill:#fbd585;fill-opacity:1;fill-rule:nonzero;stroke:none"
         d="m 9306.25,3592.81 h 1125 v 274.691 h -1125 z" /><path
         id="path432"
         style="fill:none;stroke:#fbd585;stroke-width:7.5;stroke-linecap:butt;stroke-linejoin:miter;stroke-miterlimit:4;stroke-dasharray:none;stroke-opacity:1"
         d="m 9306.25,3592.81 h 1125 v 274.691 h -1125 z" /><g
         transform="scale(10)"
         id="g434"><text
           id="text438"
           style="font-variant:normal;font-weight:normal;font-size:10.41670036px;font-family:Arial;-inkscape-font-specification:ArialMT;writing-mode:lr-tb;fill:#333333;fill-opacity:1;fill-rule:nonzero;stroke:none"
           transform="matrix(1,0,0,-1,951.56,369.5)"><tspan
             id="tspan436"
             y="0"
             x="0 7.5208573 13.312543 16.208385 22.000071 24.895912 31.843851 37.635536 39.948044 45.156395 50.948078 56.739765 59.052273 64.843956">Data Poisoning</tspan></text>
</g><path
         id="path440"
         style="fill:#febab2;fill-opacity:1;fill-rule:nonzero;stroke:none"
         d="m 10855,3771.17 h 1125 v 274.691 h -1125 z" /><path
         id="path442"
         style="fill:none;stroke:#febab2;stroke-width:7.5;stroke-linecap:butt;stroke-linejoin:miter;stroke-miterlimit:4;stroke-dasharray:none;stroke-opacity:1"
         d="m 10855,3771.17 h 1125 v 274.691 h -1125 z" /><g
         transform="scale(10)"
         id="g444"><text
           id="text448"
           style="font-variant:normal;font-weight:normal;font-size:10.41670036px;font-family:Arial;-inkscape-font-specification:ArialMT;writing-mode:lr-tb;fill:#333333;fill-opacity:1;fill-rule:nonzero;stroke:none"
           transform="matrix(1,0,0,-1,1115.41,387.336)"><tspan
             id="tspan446"
             y="0"
             x="0 7.5208573 9.8333645 15.62505 21.416735 27.20842 30.677181 32.989689 38.781376 44.573059 50.364746">Clean-label</tspan></text>
</g><path
         id="path450"
         style="fill:#fbd585;fill-opacity:1;fill-rule:nonzero;stroke:none"
         d="m 9306.25,3235.62 h 1125 v 274.688 h -1125 z" /><path
         id="path452"
         style="fill:none;stroke:#fbd585;stroke-width:7.5;stroke-linecap:butt;stroke-linejoin:miter;stroke-miterlimit:4;stroke-dasharray:none;stroke-opacity:1"
         d="m 9306.25,3235.62 h 1125 v 274.688 h -1125 z" /><g
         transform="scale(10)"
         id="g454"><text
           id="text458"
           style="font-variant:normal;font-weight:normal;font-size:10.41670036px;font-family:Arial;-inkscape-font-specification:ArialMT;writing-mode:lr-tb;fill:#333333;fill-opacity:1;fill-rule:nonzero;stroke:none"
           transform="matrix(1,0,0,-1,948.38,333.781)"><tspan
             id="tspan456"
             y="0"
             x="0 8.6771107 14.468797 20.260481 26.052166 28.364674 31.260517 38.208454 44.000141 46.312649 51.521 57.312683 63.10437 65.416878 71.208565">Model Poisoning</tspan></text>
</g><path
         id="path460"
         style="fill:#febab2;fill-opacity:1;fill-rule:nonzero;stroke:none"
         d="m 10855,3414.92 h 1125 v 273.75 h -1125 z" /><path
         id="path462"
         style="fill:none;stroke:#febab2;stroke-width:7.5;stroke-linecap:butt;stroke-linejoin:miter;stroke-miterlimit:4;stroke-dasharray:none;stroke-opacity:1"
         d="m 10855,3414.92 h 1125 v 273.75 h -1125 z" /><g
         transform="scale(10)"
         id="g464"><text
           id="text468"
           style="font-variant:normal;font-weight:normal;font-size:10.41670036px;font-family:Arial;-inkscape-font-specification:ArialMT;writing-mode:lr-tb;fill:#333333;fill-opacity:1;fill-rule:nonzero;stroke:none"
           transform="matrix(1,0,0,-1,1118.31,351.618)"><tspan
             id="tspan466"
             y="0"
             x="0 7.5208573 9.8333645 13.302126 16.197969 21.406319 24.87508 27.187588 32.979271 38.770958 44.562641">Dirty-label</tspan></text>
</g></g></g></svg>